<mxfile host="app.diagrams.net" modified="2024-05-15T07:06:13.630Z" agent="Mozilla/5.0 (Windows NT 10.0; Win64; x64) AppleWebKit/537.36 (KHTML, like Gecko) Chrome/124.0.0.0 Safari/537.36" etag="eItbI-qRLeXlFmk6v_LG" version="24.4.0" type="device">
  <diagram name="Page-1" id="mo3H6CI6IpVu7vave-cS">
    <mxGraphModel dx="1050" dy="565" grid="1" gridSize="10" guides="1" tooltips="1" connect="1" arrows="1" fold="1" page="1" pageScale="1" pageWidth="850" pageHeight="1100" math="0" shadow="0">
      <root>
        <mxCell id="0" />
        <mxCell id="1" parent="0" />
        <mxCell id="yPfuEVjfhXPk2CkWDFaz-11" value="" style="edgeStyle=orthogonalEdgeStyle;rounded=0;orthogonalLoop=1;jettySize=auto;html=1;" edge="1" parent="1" source="yPfuEVjfhXPk2CkWDFaz-1" target="yPfuEVjfhXPk2CkWDFaz-4">
          <mxGeometry relative="1" as="geometry" />
        </mxCell>
        <mxCell id="yPfuEVjfhXPk2CkWDFaz-1" value="Start" style="rounded=1;whiteSpace=wrap;html=1;" vertex="1" parent="1">
          <mxGeometry x="107.5" y="10" width="120" height="60" as="geometry" />
        </mxCell>
        <mxCell id="yPfuEVjfhXPk2CkWDFaz-2" value="End" style="rounded=1;whiteSpace=wrap;html=1;" vertex="1" parent="1">
          <mxGeometry x="315" y="680" width="120" height="60" as="geometry" />
        </mxCell>
        <mxCell id="yPfuEVjfhXPk2CkWDFaz-6" value="" style="edgeStyle=orthogonalEdgeStyle;rounded=0;orthogonalLoop=1;jettySize=auto;html=1;entryX=0.5;entryY=0;entryDx=0;entryDy=0;" edge="1" parent="1" source="yPfuEVjfhXPk2CkWDFaz-4" target="yPfuEVjfhXPk2CkWDFaz-7">
          <mxGeometry relative="1" as="geometry">
            <mxPoint x="167" y="210" as="targetPoint" />
          </mxGeometry>
        </mxCell>
        <mxCell id="yPfuEVjfhXPk2CkWDFaz-4" value="int number = 1789;&lt;div&gt;int digit = 0;&lt;/div&gt;" style="shape=parallelogram;perimeter=parallelogramPerimeter;whiteSpace=wrap;html=1;fixedSize=1;" vertex="1" parent="1">
          <mxGeometry x="100" y="100" width="135" height="60" as="geometry" />
        </mxCell>
        <mxCell id="yPfuEVjfhXPk2CkWDFaz-9" value="" style="edgeStyle=orthogonalEdgeStyle;rounded=0;orthogonalLoop=1;jettySize=auto;html=1;" edge="1" parent="1" source="yPfuEVjfhXPk2CkWDFaz-7" target="yPfuEVjfhXPk2CkWDFaz-8">
          <mxGeometry relative="1" as="geometry" />
        </mxCell>
        <mxCell id="yPfuEVjfhXPk2CkWDFaz-10" value="True" style="edgeLabel;html=1;align=center;verticalAlign=middle;resizable=0;points=[];" vertex="1" connectable="0" parent="yPfuEVjfhXPk2CkWDFaz-9">
          <mxGeometry x="-0.1345" y="1" relative="1" as="geometry">
            <mxPoint as="offset" />
          </mxGeometry>
        </mxCell>
        <mxCell id="yPfuEVjfhXPk2CkWDFaz-20" style="edgeStyle=orthogonalEdgeStyle;rounded=0;orthogonalLoop=1;jettySize=auto;html=1;entryX=0;entryY=0.5;entryDx=0;entryDy=0;" edge="1" parent="1" source="yPfuEVjfhXPk2CkWDFaz-7" target="yPfuEVjfhXPk2CkWDFaz-18">
          <mxGeometry relative="1" as="geometry">
            <Array as="points">
              <mxPoint x="160" y="525" />
            </Array>
          </mxGeometry>
        </mxCell>
        <mxCell id="yPfuEVjfhXPk2CkWDFaz-21" value="False" style="edgeLabel;html=1;align=center;verticalAlign=middle;resizable=0;points=[];" vertex="1" connectable="0" parent="yPfuEVjfhXPk2CkWDFaz-20">
          <mxGeometry x="-0.6025" y="4" relative="1" as="geometry">
            <mxPoint as="offset" />
          </mxGeometry>
        </mxCell>
        <mxCell id="yPfuEVjfhXPk2CkWDFaz-7" value="int i = 1; i &amp;lt;= 10; i++" style="shape=hexagon;perimeter=hexagonPerimeter2;whiteSpace=wrap;html=1;fixedSize=1;" vertex="1" parent="1">
          <mxGeometry x="107" y="250" width="120" height="80" as="geometry" />
        </mxCell>
        <mxCell id="yPfuEVjfhXPk2CkWDFaz-13" value="" style="edgeStyle=orthogonalEdgeStyle;rounded=0;orthogonalLoop=1;jettySize=auto;html=1;" edge="1" parent="1" source="yPfuEVjfhXPk2CkWDFaz-8" target="yPfuEVjfhXPk2CkWDFaz-12">
          <mxGeometry relative="1" as="geometry" />
        </mxCell>
        <mxCell id="yPfuEVjfhXPk2CkWDFaz-8" value="digit++" style="whiteSpace=wrap;html=1;" vertex="1" parent="1">
          <mxGeometry x="282" y="270" width="70" height="40" as="geometry" />
        </mxCell>
        <mxCell id="yPfuEVjfhXPk2CkWDFaz-15" value="" style="edgeStyle=orthogonalEdgeStyle;rounded=0;orthogonalLoop=1;jettySize=auto;html=1;" edge="1" parent="1" source="yPfuEVjfhXPk2CkWDFaz-12">
          <mxGeometry relative="1" as="geometry">
            <mxPoint x="527" y="290" as="targetPoint" />
          </mxGeometry>
        </mxCell>
        <mxCell id="yPfuEVjfhXPk2CkWDFaz-17" value="True" style="edgeLabel;html=1;align=center;verticalAlign=middle;resizable=0;points=[];" vertex="1" connectable="0" parent="yPfuEVjfhXPk2CkWDFaz-15">
          <mxGeometry x="-0.1243" y="-3" relative="1" as="geometry">
            <mxPoint as="offset" />
          </mxGeometry>
        </mxCell>
        <mxCell id="yPfuEVjfhXPk2CkWDFaz-23" style="edgeStyle=orthogonalEdgeStyle;rounded=0;orthogonalLoop=1;jettySize=auto;html=1;entryX=0.5;entryY=0;entryDx=0;entryDy=0;" edge="1" parent="1" source="yPfuEVjfhXPk2CkWDFaz-12" target="yPfuEVjfhXPk2CkWDFaz-7">
          <mxGeometry relative="1" as="geometry">
            <Array as="points">
              <mxPoint x="435" y="230" />
              <mxPoint x="167" y="230" />
            </Array>
          </mxGeometry>
        </mxCell>
        <mxCell id="yPfuEVjfhXPk2CkWDFaz-24" value="False" style="edgeLabel;html=1;align=center;verticalAlign=middle;resizable=0;points=[];" vertex="1" connectable="0" parent="yPfuEVjfhXPk2CkWDFaz-23">
          <mxGeometry x="-0.5766" y="-2" relative="1" as="geometry">
            <mxPoint as="offset" />
          </mxGeometry>
        </mxCell>
        <mxCell id="yPfuEVjfhXPk2CkWDFaz-12" value="number &amp;lt; 10" style="rhombus;whiteSpace=wrap;html=1;" vertex="1" parent="1">
          <mxGeometry x="390" y="250" width="90" height="80" as="geometry" />
        </mxCell>
        <mxCell id="yPfuEVjfhXPk2CkWDFaz-19" style="edgeStyle=orthogonalEdgeStyle;rounded=0;orthogonalLoop=1;jettySize=auto;html=1;entryX=1;entryY=0.5;entryDx=0;entryDy=0;" edge="1" parent="1" source="yPfuEVjfhXPk2CkWDFaz-14" target="yPfuEVjfhXPk2CkWDFaz-18">
          <mxGeometry relative="1" as="geometry">
            <Array as="points">
              <mxPoint x="600" y="525" />
            </Array>
          </mxGeometry>
        </mxCell>
        <mxCell id="yPfuEVjfhXPk2CkWDFaz-14" value="break;" style="whiteSpace=wrap;html=1;" vertex="1" parent="1">
          <mxGeometry x="530" y="260" width="120" height="60" as="geometry" />
        </mxCell>
        <mxCell id="yPfuEVjfhXPk2CkWDFaz-22" value="" style="edgeStyle=orthogonalEdgeStyle;rounded=0;orthogonalLoop=1;jettySize=auto;html=1;" edge="1" parent="1" source="yPfuEVjfhXPk2CkWDFaz-18" target="yPfuEVjfhXPk2CkWDFaz-2">
          <mxGeometry relative="1" as="geometry" />
        </mxCell>
        <mxCell id="yPfuEVjfhXPk2CkWDFaz-18" value="Eded {digit} mertebelidir" style="shape=document;whiteSpace=wrap;html=1;boundedLbl=1;" vertex="1" parent="1">
          <mxGeometry x="280" y="460" width="190" height="130" as="geometry" />
        </mxCell>
      </root>
    </mxGraphModel>
  </diagram>
</mxfile>
